<svg id="Слой_1" data-name="Слой 1" xmlns="http://www.w3.org/2000/svg" viewBox="0 0 276.67 167.33"><defs><style>.cls-1,.cls-2{fill:#fff;}.cls-2{font-size:14.94px;font-family:Arial-BoldMT, Arial;font-weight:700;}.cls-3{letter-spacing:-0.02em;}</style></defs><title>Лого ЕДЦ</title><path class="cls-1" d="M86.17,81V56.89c5.9-1.28,9.7-2.07,16.19-3.61,0,1.21,0,1.83,0,3.07-5.07,1.15-7.9,1.74-12.91,2.78.05,2.7.07,4,.11,6.69,4.75-.79,7.28-1.22,12-2.07,0,1.24,0,1.86,0,3.1-4.65.76-7.15,1.15-11.94,1.86.06,3.63.09,5.4.14,9.08,5.27-.52,7.84-.79,12.67-1.31,0,1.25,0,1.85,0,3.11C96.34,80.13,93.07,80.38,86.17,81Z"/><path class="cls-1" d="M127,84l-3.23.21V77.52c-6.61.64-9.67,1-16.55,1.57,0,2.54,0,3.8,0,6.17l-3.36.2c0-3.55,0-5.47,0-9.14l1.44-.16A36.75,36.75,0,0,0,109,65.49a70.52,70.52,0,0,0,1.42-14.18c5.75-1.45,8.4-2.16,14.06-3.57,0,9.45,0,15.81,0,26.21l2.42-.28C127,77.78,127,80.29,127,84Zm-5.81-9.65c0-8.9,0-13.66,0-22.55l-7.52,1.83a69.57,69.57,0,0,1-1.56,12.69,36.19,36.19,0,0,1-3.38,9.47C113.82,75.21,116.15,74.93,121.15,74.35Z"/><path class="cls-1" d="M151.34,82.5l-3.5.22c0-2.51,0-4,0-7.26-7.51.65-10.43.87-17.59,1.53,0-10.22,0-20.44,0-30.66l3.52-.83c0,9.62,0,16.6,0,27.45l11.36-1.19q0-14.4-.06-28.79l3.65-.8q0,14.61,0,29.21l2.65-.28C151.37,75.6,151.34,78.69,151.34,82.5Z"/><text class="cls-2" transform="translate(9.71 152.61)">ЕДИНЫЙ ДИСПЕТЧЕ<tspan class="cls-3" x="154.16" y="0">Р</tspan><tspan x="163.76" y="0">СКИЙ ЦЕНТР</tspan></text><path class="cls-1" d="M263.58,126.44c-7.76-.14-15.56-.07-23.76-.07q-.1-8.75,0-17.5c0-1.38-.47-1.82-1.72-2.19q-20.64-6.08-41.23-12.3c-2.78-.83-3.12-1.38-3.12-4.24q.06-24.9.11-49.81V37.86l45.86,38.73c.26-5-.8-9-4.58-11.9-1.36-1.06-2.58-2.31-3.88-3.44q-22-19.12-44.05-38.24l-7.78-6.85c-8.65-7.62-18.06-9.69-29.12-5.65Q99,29.26,47.51,47.44c-3.64,1.29-4.64,3.1-4.61,6.84.18,22.15.09,44.3.09,66.46v5.7H10.73v4.27H269.67v-4.27Zm-188-76.65,55.83-18.16c5.06-1.64,10.12-3.29,15.2-4.87,14.06-4.41,24.77,1.83,33.69,10.72A7,7,0,0,1,182,42c.06,24.65,0,49.3,0,73.94a4.92,4.92,0,0,1-.49,1.27H75.62Z"/><path class="cls-1" d="M238.67,81.69Q223.6,69,208.47,56.39c-3.12-2.61-6.27-5.2-9.66-8-.09.65-.14.84-.14,1q0,19,0,38.07c0,2.08,1.06,3.09,2.95,3.67q18.45,5.61,36.89,11.3a9.72,9.72,0,0,0,1.24.2,2.86,2.86,0,0,0,.16-.68c0-6.15,0-12.31-.14-18.46A2.86,2.86,0,0,0,238.67,81.69Z"/></svg>